P3
11 10
255
255 242 204 255 242 204 255 242 204 255 242 204 255 242 204 255 242 204 255 242 204 255 242 204 255 242 204 255 242 204 197 17 17 
255 242 204 255 242 204 255 242 204 197 17 17 197 17 17 197 17 17 197 17 17 197 17 17 255 242 204 255 242 204 197 17 17 
255 242 204 255 242 204 197 17 17 197 17 17 255 242 204 197 17 17 159 197 232 159 197 232 197 17 17 255 242 204 197 17 17 
255 242 204 197 17 17 197 17 17 255 242 204 255 242 204 197 17 17 159 197 232 159 197 232 197 17 17 255 242 204 197 17 17 
255 242 204 197 17 17 255 242 204 255 242 204 255 242 204 197 17 17 197 17 17 197 17 17 197 17 17 255 242 204 197 17 17 
255 242 204 197 17 17 255 242 204 255 242 204 255 242 204 255 242 204 255 242 204 255 242 204 197 17 17 255 242 204 197 17 17 
255 242 204 197 17 17 197 17 17 255 242 204 255 242 204 255 242 204 255 242 204 255 242 204 197 17 17 255 242 204 197 17 17 
255 242 204 255 242 204 197 17 17 255 242 204 255 242 204 197 17 17 255 242 204 255 242 204 197 17 17 255 242 204 197 17 17 
255 242 204 255 242 204 197 17 17 197 17 17 197 17 17 197 17 17 197 17 17 197 17 17 197 17 17 255 242 204 197 17 17 
255 242 204 255 242 204 255 242 204 255 242 204 255 242 204 255 242 204 255 242 204 255 242 204 255 242 204 255 242 204 197 17 17
