P3
# Created by GIMP version 2.10.28 PNM plug-in
10 11
255
0
0
0
0
0
0
0
0
0
0
0
0
0
0
0
0
0
0
0
0
0
0
0
0
0
0
0
0
0
0
0
0
0
0
0
0
0
0
0
197
17
17
197
17
17
197
17
17
197
17
17
0
0
0
0
0
0
0
0
0
0
0
0
197
17
17
197
17
17
197
17
17
0
0
0
0
0
0
197
17
17
197
17
17
0
0
0
0
0
0
0
0
0
197
17
17
0
0
0
0
0
0
0
0
0
0
0
0
0
0
0
197
17
17
197
17
17
0
0
0
0
0
0
197
17
17
0
0
0
0
0
0
0
0
0
0
0
0
0
0
0
0
0
0
197
17
17
0
0
0
0
0
0
197
17
17
197
17
17
0
0
0
0
0
0
197
17
17
197
17
17
197
17
17
197
17
17
0
0
0
0
0
0
197
17
17
0
0
0
0
0
0
0
0
0
197
17
17
0
0
0
0
0
0
197
17
17
0
0
0
0
0
0
197
17
17
0
0
0
0
0
0
0
0
0
197
17
17
0
0
0
0
0
0
197
17
17
0
0
0
0
0
0
197
17
17
197
17
17
197
17
17
197
17
17
197
17
17
197
17
17
197
17
17
0
0
0
0
0
0
0
0
0
0
0
0
0
0
0
0
0
0
0
0
0
0
0
0
0
0
0
0
0
0
0
0
0
0
0
0
197
17
17
197
17
17
197
17
17
197
17
17
197
17
17
197
17
17
197
17
17
197
17
17
197
17
17
197
17
17
